# xmcd
#
# Track frame offsets:
# 150
# 10315
# 19331
# 34643
# 48738
# 59254
# 76518
# 92709
# 103003
# 111653
# 123735
# 137813
# 149204
# 160653
#
# Disc length: 2250 seconds
#
#
# Revision: 0
# Processed by: cddbd v1.5.2PL0 Copyright (c) Steve Scherf et al.
# Submitted via: FreeRIP 2.90 
#
DISCID=c608c80e
DTITLE=Varios - Viola e Canto dos Passaros
DYEAR=1900
DGENRE=sertanejo
TTITLE0=Saudade da minha terra - Canario belga
TTITLE1=Mourao de porteira - Sabia laranjeira
TTITLE2=Porta do mundo - Bicudo tradicional
TTITLE3=Os tres boiadeiros - Bigodinho
TTITLE4=20 anos - Bicudo do norte
TTITLE5=Tristeza do jeca - Azulao
TTITLE6=Caminheiro - Canario belga
TTITLE7=A gangorra - Passaro preto
TTITLE8=Joao de barro - Caboclinho
TTITLE9=Galopeira - Curio avinhado
TTITLE10=Curitibana - Pintassilgo
TTITLE11=Berrante de magdal - Trinca ferro
TTITLE12=Cana verde - Papacapim
TTITLE13=Dois morenos - Cardeal
EXTD=
EXTT0=
EXTT1=
EXTT2=
EXTT3=
EXTT4=
EXTT5=
EXTT6=
EXTT7=
EXTT8=
EXTT9=
EXTT10=
EXTT11=
EXTT12=
EXTT13=
PLAYORDER=
